<?xml version="1.0" encoding="utf-8"?>
<!-- Generator: Adobe Illustrator 24.3.0, SVG Export Plug-In . SVG Version: 6.00 Build 0)  -->
<svg version="1.1" baseProfile="basic" id="Layer_1"
	 xmlns="http://www.w3.org/2000/svg" xmlns:xlink="http://www.w3.org/1999/xlink" x="0px" y="0px" viewBox="0 0 2165.3 1080"
	 xml:space="preserve">
<style type="text/css">
	.st0{fill:#35383D;}
	.st1{fill:#B7F272;}
	.st2{fill:url(#SVGID_1_);}
	.st3{fill:url(#SVGID_2_);}
	.st4{fill:url(#SVGID_3_);}
	.st5{fill:url(#SVGID_4_);}
	.st6{fill:url(#SVGID_5_);}
	.st7{fill:url(#SVGID_6_);}
	.st8{fill:url(#SVGID_7_);}
	.st9{fill:url(#SVGID_8_);}
	.st10{fill:url(#SVGID_9_);}
	.st11{fill:#4C4C4C;}
	.st12{fill:url(#SVGID_10_);}
	.st13{fill:url(#SVGID_11_);}
</style>
<g>
	<g>
		<linearGradient id="SVGID_1_" gradientUnits="userSpaceOnUse" x1="829.1367" y1="385.8809" x2="1936.7096" y2="385.8809">
			<stop  offset="0" style="stop-color:#35383D"/>
			<stop  offset="1" style="stop-color:#B7F272"/>
		</linearGradient>
		<path class="st2" d="M938.3,345.5c-0.7-7.5-3.9-13.3-9.6-17.4c-5.7-4.1-13.3-6.2-22.9-6.2c-9.8,0-17.4,2-22.6,6
			c-5.3,4-7.9,9.1-7.9,15.2c-0.1,6.8,2.8,12,8.8,15.4c6,3.5,13.1,6.2,21.3,8.1l17.1,4.1c11,2.5,20.8,6.1,29.4,10.8
			c8.6,4.7,15.3,10.7,20.2,18.1c4.9,7.4,7.4,16.4,7.4,26.9c-0.1,17.4-6.6,31.2-19.5,41.5c-13,10.3-31,15.4-54.2,15.4
			c-23.1,0-41.5-5.3-55.2-15.8c-13.7-10.5-20.8-26-21.3-46.6H868c0.7,9.5,4.4,16.7,11.3,21.5c6.8,4.8,15.5,7.2,25.9,7.2
			c10.2,0,18.3-2.2,24.4-6.5c6.1-4.3,9.2-10,9.2-16.9c-0.1-6.4-2.9-11.4-8.4-14.8c-5.6-3.5-13.5-6.4-23.8-8.9l-20.7-5.2
			c-16-3.8-28.7-9.9-37.9-18.3c-9.3-8.3-13.9-19.5-13.8-33.5c-0.1-11.5,3-21.6,9.2-30.2c6.2-8.6,14.8-15.3,25.6-20.1
			c10.9-4.8,23.3-7.2,37.1-7.2c14.1,0,26.4,2.4,37,7.2c10.5,4.8,18.8,11.5,24.6,20.1c5.9,8.6,8.9,18.6,9.1,29.9H938.3z"/>
		<linearGradient id="SVGID_2_" gradientUnits="userSpaceOnUse" x1="829.1367" y1="409.9971" x2="1936.7096" y2="409.9971">
			<stop  offset="0" style="stop-color:#35383D"/>
			<stop  offset="1" style="stop-color:#B7F272"/>
		</linearGradient>
		<path class="st3" d="M1046.2,483.5c-13.6,0-24.9-3.6-33.9-10.7c-9-7.1-13.4-17.7-13.4-31.8c0-10.6,2.5-19,7.5-25
			c5-6.1,11.6-10.5,19.7-13.3c8.1-2.8,16.9-4.7,26.3-5.5c12.4-1.2,21.2-2.5,26.5-3.9c5.3-1.4,8-4.3,8-8.9v-0.6
			c0-5.9-1.8-10.4-5.5-13.6c-3.7-3.2-8.9-4.8-15.6-4.8c-7.1,0-12.8,1.5-17,4.6c-4.2,3.1-7,7-8.3,11.8l-36.5-3
			c2.7-13,9.5-23.3,20.3-30.9c10.8-7.6,24.7-11.4,41.8-11.4c10.6,0,20.5,1.7,29.7,5c9.2,3.3,16.6,8.5,22.3,15.6
			c5.7,7.1,8.5,16.3,8.5,27.6v96.1h-37.5v-19.8h-1.1c-3.5,6.6-8.6,12-15.5,16.2C1065.4,481.4,1056.7,483.5,1046.2,483.5z
			 M1057.5,456.2c8.7,0,15.8-2.5,21.3-7.6c5.6-5,8.3-11.3,8.3-18.8v-15.1c-1.5,1.1-3.9,2-7.2,2.8c-3.2,0.8-6.7,1.5-10.4,2.1
			c-3.7,0.6-7,1.1-9.9,1.5c-6.9,1-12.5,2.9-16.7,5.8c-4.2,2.9-6.4,7.1-6.4,12.7c0,5.4,2,9.6,5.9,12.3S1051.4,456.2,1057.5,456.2z"/>
		<linearGradient id="SVGID_3_" gradientUnits="userSpaceOnUse" x1="829.1367" y1="408.6521" x2="1936.7096" y2="408.6521">
			<stop  offset="0" style="stop-color:#35383D"/>
			<stop  offset="1" style="stop-color:#B7F272"/>
		</linearGradient>
		<path class="st4" d="M1157.1,480.8V338.3h37.7v25.1h1.7c3-8.4,7.9-15,14.9-19.8c7-4.8,15.2-7.2,24.8-7.2c9.8,0,18.1,2.4,25,7.3
			c6.9,4.9,11.4,11.4,13.7,19.7h1.5c2.9-8.2,8.2-14.7,15.8-19.6c7.6-4.9,16.7-7.4,27.1-7.4c13.3,0,24.1,4.2,32.4,12.7
			c8.3,8.4,12.5,20.4,12.5,35.8v95.8h-39.4v-88c0-7.9-2.1-13.9-6.3-17.8c-4.2-4-9.5-5.9-15.8-5.9c-7.2,0-12.8,2.3-16.8,6.9
			c-4,4.6-6,10.5-6,17.9v87h-38.3V392c0-7-2-12.6-6-16.7c-4-4.1-9.2-6.2-15.7-6.2c-6.6,0-12.1,2.4-16.5,7.2
			c-4.5,4.8-6.7,11.1-6.7,19.1v85.5H1157.1z"/>
		<linearGradient id="SVGID_4_" gradientUnits="userSpaceOnUse" x1="829.1367" y1="393.525" x2="1936.7096" y2="393.525">
			<stop  offset="0" style="stop-color:#35383D"/>
			<stop  offset="1" style="stop-color:#B7F272"/>
		</linearGradient>
		<path class="st5" d="M1471.1,338.3V368h-26.8v69c0,5.4,1.2,9.1,3.7,11c2.5,1.9,5.7,2.9,9.6,2.9c1.9,0,3.7-0.2,5.6-0.5
			c1.9-0.3,3.3-0.6,4.3-0.8l6.2,29.4c-2,0.6-4.8,1.3-8.3,2.2c-3.6,0.8-7.9,1.3-13.1,1.5c-14.3,0.6-25.9-2.5-34.6-9.3
			c-8.7-6.8-13-17.2-12.9-31.2V368h-19.5v-29.7h19.5v-34.1h39.5v34.1H1471.1z"/>
		<linearGradient id="SVGID_5_" gradientUnits="userSpaceOnUse" x1="829.1367" y1="410.0435" x2="1936.7096" y2="410.0435">
			<stop  offset="0" style="stop-color:#35383D"/>
			<stop  offset="1" style="stop-color:#B7F272"/>
		</linearGradient>
		<path class="st6" d="M1560.2,483.6c-14.6,0-27.2-3-37.8-9c-10.6-6-18.7-14.4-24.4-25.4c-5.7-11-8.5-24-8.5-39
			c0-14.7,2.8-27.5,8.5-38.6c5.7-11.1,13.7-19.7,24.1-25.9c10.4-6.2,22.5-9.3,36.5-9.3c12.6,0,23.9,2.7,34,8
			c10.1,5.3,18.1,13.3,24.1,24.1c5.9,10.7,8.9,24.2,8.9,40.3v10.9h-97v0.1c0,10.6,2.9,19,8.7,25.1c5.8,6.1,13.7,9.2,23.6,9.2
			c6.6,0,12.3-1.4,17.2-4.2s8.2-6.9,10.2-12.3l36.5,2.4c-2.8,13.2-9.8,23.8-21.1,31.7C1592.3,479.6,1577.8,483.6,1560.2,483.6z
			 M1528.6,395.2h59.8c-0.1-8.5-2.8-15.5-8.2-21c-5.4-5.5-12.4-8.3-21-8.3c-8.8,0-16,2.8-21.6,8.5
			C1532.1,380.2,1529,387.1,1528.6,395.2z"/>
		<linearGradient id="SVGID_6_" gradientUnits="userSpaceOnUse" x1="829.1367" y1="410.0435" x2="1936.7096" y2="410.0435">
			<stop  offset="0" style="stop-color:#35383D"/>
			<stop  offset="1" style="stop-color:#B7F272"/>
		</linearGradient>
		<path class="st7" d="M1715.8,483.6c-14.6,0-27.1-3.1-37.6-9.3c-10.5-6.2-18.5-14.9-24.1-25.9c-5.6-11.1-8.4-23.8-8.4-38.2
			c0-14.6,2.8-27.4,8.5-38.4c5.7-11,13.7-19.7,24.2-25.9c10.4-6.2,22.9-9.3,37.3-9.3c12.4,0,23.3,2.3,32.7,6.8
			c9.4,4.5,16.8,10.9,22.2,19c5.4,8.2,8.4,17.7,9,28.8h-37.3c-1.1-7.1-3.8-12.8-8.3-17.2c-4.5-4.4-10.3-6.5-17.6-6.5
			c-9.2,0-16.5,3.7-22.1,11c-5.6,7.4-8.3,17.8-8.3,31.3c0,13.6,2.8,24.1,8.3,31.6c5.5,7.5,12.9,11.2,22.1,11.2
			c6.8,0,12.5-2.1,17.2-6.2c4.6-4.1,7.5-10,8.7-17.6h37.3c-0.6,10.9-3.6,20.5-8.9,28.8c-5.3,8.3-12.6,14.7-21.8,19.3
			C1739.4,481.3,1728.4,483.6,1715.8,483.6z"/>
		<linearGradient id="SVGID_7_" gradientUnits="userSpaceOnUse" x1="829.1367" y1="385.8345" x2="1936.7096" y2="385.8345">
			<stop  offset="0" style="stop-color:#35383D"/>
			<stop  offset="1" style="stop-color:#B7F272"/>
		</linearGradient>
		<path class="st8" d="M1844.3,398.4v82.4h-39.5v-190h38.4v72.6h1.7c3.3-8.4,8.5-15,15.6-19.8c7.1-4.8,16.1-7.2,26.9-7.2
			c14.8,0,26.8,4.8,35.8,14.3c9,9.5,13.5,22.6,13.4,39.3v90.7h-39.5v-83.7c0.1-8.8-2.1-15.6-6.6-20.5c-4.5-4.9-10.7-7.3-18.8-7.3
			c-8,0-14.6,2.6-19.7,7.7S1844.4,389.2,1844.3,398.4z"/>
	</g>
	<g>
		<path class="st11" d="M838.7,721.6v-5.2h36.6v5.2h-15.3v43.6H854v-43.6H838.7z"/>
		<path class="st11" d="M878.5,765.2v-36.6h5.4v5.5h0.4c0.7-1.8,1.9-3.3,3.6-4.4c1.7-1.1,3.7-1.7,5.9-1.7c1,0,1.9,0.1,2.7,0.4
			s1.4,0.6,2,1l-1.9,4.8c-0.4-0.2-0.9-0.4-1.4-0.5c-0.5-0.1-1.1-0.2-1.8-0.2c-2.7,0-4.9,0.8-6.6,2.4s-2.6,3.7-2.6,6.1v23.2H878.5z"
			/>
		<path class="st11" d="M913.7,766c-2.3,0-4.4-0.4-6.3-1.3s-3.4-2.2-4.5-3.8c-1.1-1.7-1.7-3.7-1.7-6.1c0-2.1,0.4-3.8,1.2-5.1
			s1.9-2.3,3.3-3.1c1.4-0.7,2.9-1.3,4.6-1.7c1.7-0.4,3.4-0.7,5.1-0.9c2.2-0.3,4-0.5,5.4-0.7c1.4-0.2,2.4-0.4,3.1-0.8s1-1,1-1.9v-0.2
			c0-2.4-0.6-4.2-1.9-5.5c-1.3-1.3-3.2-2-5.8-2c-2.7,0-4.8,0.6-6.3,1.8s-2.6,2.4-3.2,3.8l-5.3-1.9c1-2.2,2.2-4,3.8-5.2
			s3.3-2.1,5.2-2.6c1.9-0.5,3.8-0.8,5.6-0.8c1.2,0,2.5,0.1,4.1,0.4c1.5,0.3,3,0.8,4.5,1.7c1.4,0.9,2.6,2.2,3.6,3.9
			c1,1.7,1.4,4.1,1.4,7v24.1h-5.6v-5h-0.3c-0.4,0.8-1,1.6-1.9,2.6c-0.9,0.9-2.1,1.7-3.6,2.3C917.6,765.7,915.8,766,913.7,766z
			 M914.6,761c2.2,0,4.1-0.4,5.6-1.3s2.7-2,3.5-3.4c0.8-1.4,1.2-2.8,1.2-4.4v-5.1c-0.2,0.3-0.8,0.5-1.6,0.8s-1.7,0.4-2.8,0.6
			c-1,0.2-2,0.3-3,0.4s-1.8,0.2-2.4,0.3c-1.5,0.2-2.8,0.5-4.1,0.9c-1.3,0.4-2.3,1-3.1,1.9c-0.8,0.8-1.2,2-1.2,3.4
			c0,2,0.7,3.4,2.2,4.4S912.3,761,914.6,761z"/>
		<path class="st11" d="M945.1,743.2v22h-5.6v-36.6h5.4v5.7h0.5c0.9-1.9,2.2-3.4,3.9-4.5c1.7-1.1,4-1.7,6.8-1.7c3.7,0,6.7,1.1,9,3.4
			c2.3,2.3,3.4,5.7,3.4,10.4v23.3h-5.6v-22.9c0-2.9-0.7-5.1-2.2-6.7c-1.5-1.6-3.5-2.4-6.1-2.4c-2.7,0-4.9,0.9-6.7,2.6
			C945.9,737.5,945.1,740,945.1,743.2z"/>
		<path class="st11" d="M1003.3,736.8l-5.1,1.4c-0.5-1.3-1.3-2.5-2.5-3.6c-1.2-1.1-3-1.7-5.4-1.7c-2.2,0-4.1,0.5-5.6,1.5
			c-1.5,1-2.2,2.3-2.2,3.9c0,1.4,0.5,2.5,1.5,3.3s2.6,1.5,4.8,2l5.4,1.3c6.5,1.6,9.7,4.9,9.7,9.9c0,2.1-0.6,4-1.8,5.6
			c-1.2,1.7-2.9,3-5,3.9c-2.1,1-4.6,1.4-7.5,1.4c-3.7,0-6.8-0.8-9.3-2.4c-2.4-1.6-4-4-4.6-7.1l5.3-1.3c1,3.9,3.8,5.9,8.5,5.9
			c2.6,0,4.7-0.6,6.3-1.7c1.5-1.1,2.3-2.5,2.3-4c0-2.6-1.8-4.3-5.4-5.1l-6.1-1.4c-3.4-0.8-5.8-2-7.4-3.7c-1.6-1.7-2.3-3.8-2.3-6.3
			c0-2.1,0.6-3.9,1.8-5.5c1.2-1.6,2.8-2.8,4.8-3.7c2-0.9,4.3-1.4,6.9-1.4c3.6,0,6.5,0.8,8.5,2.4
			C1001,732.1,1002.4,734.2,1003.3,736.8z"/>
		<path class="st11" d="M1027.4,728.6v4.8h-8.2v31.8h-5.6v-31.8h-5.9v-4.8h5.9v-5.1c0-2.1,0.5-3.8,1.5-5.2c1-1.4,2.3-2.4,3.8-3.1
			s3.2-1,5-1c1.4,0,2.5,0.1,3.4,0.3c0.9,0.2,1.5,0.4,2,0.6l-1.6,4.9c-0.3-0.1-0.7-0.2-1.2-0.4c-0.5-0.1-1.2-0.2-2-0.2
			c-1.9,0-3.2,0.5-4,1.4c-0.8,0.9-1.2,2.3-1.2,4.1v3.7H1027.4z"/>
		<path class="st11" d="M1047.3,765.9c-3.3,0-6.2-0.8-8.7-2.4c-2.5-1.6-4.4-3.8-5.8-6.6s-2.1-6.1-2.1-9.9c0-3.8,0.7-7.1,2.1-10
			s3.3-5.1,5.8-6.6c2.5-1.6,5.4-2.4,8.7-2.4s6.2,0.8,8.7,2.4c2.5,1.6,4.4,3.8,5.8,6.6s2.1,6.2,2.1,10c0,3.8-0.7,7.1-2.1,9.9
			s-3.3,5-5.8,6.6C1053.5,765.2,1050.6,765.9,1047.3,765.9z M1047.3,760.9c2.5,0,4.6-0.6,6.2-1.9s2.8-3,3.6-5.1
			c0.8-2.1,1.2-4.4,1.2-6.8c0-2.4-0.4-4.7-1.2-6.8c-0.8-2.1-2-3.8-3.6-5.1s-3.7-2-6.2-2s-4.6,0.7-6.2,2c-1.6,1.3-2.8,3-3.6,5.1
			c-0.8,2.1-1.2,4.4-1.2,6.8c0,2.4,0.4,4.7,1.2,6.8c0.8,2.1,2,3.8,3.6,5.1C1042.8,760.2,1044.8,760.9,1047.3,760.9z"/>
		<path class="st11" d="M1071.2,765.2v-36.6h5.4v5.5h0.4c0.7-1.8,1.9-3.3,3.6-4.4c1.7-1.1,3.7-1.7,5.9-1.7c0.4,0,0.9,0,1.5,0
			c0.6,0,1.1,0,1.4,0.1v5.7c-0.2,0-0.6-0.1-1.3-0.2c-0.7-0.1-1.4-0.2-2.1-0.2c-2.7,0-4.9,0.8-6.6,2.4s-2.6,3.7-2.6,6.1v23.2H1071.2z
			"/>
		<path class="st11" d="M1094.8,765.2v-36.6h5.4v5.7h0.5c0.8-2,2-3.5,3.7-4.6c1.7-1.1,3.7-1.6,6.1-1.6c2.4,0,4.4,0.5,6,1.6
			c1.6,1.1,2.9,2.6,3.8,4.6h0.4c0.9-1.9,2.3-3.4,4.2-4.5s4.1-1.7,6.7-1.7c3.3,0,6,1,8,3.1c2.1,2,3.1,5.2,3.1,9.5v24.5h-5.6v-24.5
			c0-2.7-0.7-4.6-2.2-5.8c-1.5-1.2-3.2-1.7-5.2-1.7c-2.6,0-4.6,0.8-6,2.3c-1.4,1.5-2.1,3.5-2.1,5.9v23.8h-5.7v-25.1
			c0-2.1-0.7-3.8-2-5c-1.4-1.3-3.1-1.9-5.2-1.9c-1.5,0-2.8,0.4-4.1,1.2c-1.3,0.8-2.3,1.9-3.1,3.2c-0.8,1.4-1.2,3-1.2,4.8v22.9
			H1094.8z"/>
		<path class="st11" d="M1154.7,722.5c-1.1,0-2-0.4-2.8-1.1c-0.8-0.7-1.2-1.6-1.2-2.7s0.4-1.9,1.2-2.7c0.8-0.7,1.7-1.1,2.8-1.1
			s2,0.4,2.8,1.1c0.8,0.7,1.2,1.6,1.2,2.7s-0.4,1.9-1.2,2.7C1156.7,722.1,1155.8,722.5,1154.7,722.5z M1151.8,765.2v-36.6h5.6v36.6
			H1151.8z"/>
		<path class="st11" d="M1172,743.2v22h-5.6v-36.6h5.4v5.7h0.5c0.9-1.9,2.2-3.4,3.9-4.5c1.7-1.1,4-1.7,6.8-1.7c3.7,0,6.7,1.1,9,3.4
			c2.3,2.3,3.4,5.7,3.4,10.4v23.3h-5.6v-22.9c0-2.9-0.7-5.1-2.2-6.7c-1.5-1.6-3.5-2.4-6.1-2.4c-2.7,0-4.9,0.9-6.7,2.6
			C1172.9,737.5,1172,740,1172,743.2z"/>
		<path class="st11" d="M1219.1,779.7c-4.1,0-7.3-0.7-9.7-2.2c-2.4-1.5-4.1-3.2-5.3-5.1l4.5-3.1c0.5,0.7,1.2,1.4,1.9,2.3
			c0.8,0.9,1.8,1.6,3.2,2.3s3.1,1,5.4,1c3,0,5.4-0.7,7.3-2.1c1.9-1.4,2.9-3.7,2.9-6.7v-7.4h-0.5c-0.4,0.7-1,1.5-1.8,2.5
			c-0.8,1-1.8,1.8-3.2,2.6s-3.3,1.1-5.7,1.1c-3,0-5.6-0.7-7.9-2.1c-2.3-1.4-4.2-3.4-5.6-6.1c-1.4-2.7-2-5.9-2-9.7c0-3.8,0.7-7,2-9.8
			c1.3-2.8,3.2-4.9,5.5-6.5c2.4-1.5,5.1-2.3,8.2-2.3c2.4,0,4.3,0.4,5.7,1.2c1.4,0.8,2.5,1.7,3.2,2.7s1.3,1.8,1.8,2.4h0.6v-5.8h5.4
			v37.7c0,3.1-0.7,5.7-2.1,7.7c-1.4,2-3.3,3.4-5.7,4.4S1222,779.7,1219.1,779.7z M1218.9,759.6c3.4,0,6-1.1,7.8-3.4s2.7-5.5,2.7-9.5
			c0-4-0.9-7.2-2.7-9.7c-1.8-2.5-4.4-3.8-7.8-3.8c-2.4,0-4.4,0.6-5.9,1.8c-1.6,1.2-2.8,2.8-3.6,4.9s-1.2,4.3-1.2,6.8
			c0,3.8,0.9,6.9,2.7,9.3C1212.7,758.3,1215.4,759.6,1218.9,759.6z"/>
		<path class="st11" d="M1268.1,716.4v48.8h-5.9v-48.8H1268.1z"/>
		<path class="st11" d="M1291.6,765.9c-3.1,0-5.7-0.8-8.1-2.3c-2.3-1.5-4.2-3.7-5.5-6.6c-1.3-2.8-2-6.2-2-10.1c0-3.8,0.7-7.2,2-10
			c1.3-2.8,3.2-5,5.5-6.6c2.4-1.5,5.1-2.3,8.2-2.3c2.4,0,4.3,0.4,5.7,1.2c1.4,0.8,2.5,1.7,3.2,2.7c0.7,1,1.3,1.8,1.7,2.4h0.5v-18
			h5.6v48.8h-5.4v-5.6h-0.7c-0.4,0.7-1,1.5-1.8,2.5s-1.9,1.9-3.3,2.7C1295.9,765.6,1294,765.9,1291.6,765.9z M1292.4,760.9
			c3.4,0,6-1.3,7.8-3.9s2.7-6,2.7-10.1c0-4.1-0.9-7.4-2.7-9.9c-1.8-2.5-4.4-3.8-7.8-3.8c-2.4,0-4.4,0.6-5.9,1.8
			c-1.6,1.2-2.8,2.9-3.6,4.9s-1.2,4.4-1.2,7c0,2.6,0.4,5,1.2,7.1c0.8,2.1,2,3.8,3.6,5.1S1290,760.9,1292.4,760.9z"/>
		<path class="st11" d="M1333.5,765.9c-3.5,0-6.6-0.8-9.1-2.3c-2.6-1.6-4.5-3.8-5.9-6.6c-1.4-2.8-2.1-6.1-2.1-9.9s0.7-7.1,2.1-9.9
			c1.4-2.9,3.3-5.1,5.8-6.7c2.5-1.6,5.4-2.4,8.7-2.4c1.9,0,3.8,0.3,5.6,1c1.9,0.6,3.6,1.7,5.1,3.1c1.5,1.4,2.7,3.3,3.6,5.6
			c0.9,2.3,1.4,5.2,1.4,8.6v2.4h-26.6c0.1,3.9,1.2,6.9,3.3,9c2.1,2.1,4.8,3.1,8.1,3.1c2.2,0,4.1-0.5,5.7-1.4c1.6-1,2.7-2.4,3.5-4.3
			l5.4,1.5c-0.9,2.8-2.6,5-5.1,6.7C1340.3,765.1,1337.2,765.9,1333.5,765.9z M1322.1,743.9h20.9c0-3.1-0.9-5.7-2.7-7.7
			s-4.2-3.1-7.3-3.1c-2.1,0-4,0.5-5.6,1.5s-2.8,2.3-3.7,4C1322.7,740.3,1322.2,742,1322.1,743.9z"/>
		<path class="st11" d="M1366.7,766c-2.3,0-4.4-0.4-6.3-1.3s-3.4-2.2-4.5-3.8c-1.1-1.7-1.7-3.7-1.7-6.1c0-2.1,0.4-3.8,1.2-5.1
			s1.9-2.3,3.3-3.1c1.4-0.7,2.9-1.3,4.6-1.7c1.7-0.4,3.4-0.7,5.1-0.9c2.2-0.3,4-0.5,5.4-0.7c1.4-0.2,2.4-0.4,3.1-0.8s1-1,1-1.9v-0.2
			c0-2.4-0.6-4.2-1.9-5.5c-1.3-1.3-3.2-2-5.8-2c-2.7,0-4.8,0.6-6.3,1.8s-2.6,2.4-3.2,3.8l-5.3-1.9c1-2.2,2.2-4,3.8-5.2
			s3.3-2.1,5.2-2.6c1.9-0.5,3.8-0.8,5.6-0.8c1.2,0,2.5,0.1,4.1,0.4c1.5,0.3,3,0.8,4.5,1.7c1.4,0.9,2.6,2.2,3.6,3.9
			c1,1.7,1.4,4.1,1.4,7v24.1h-5.6v-5h-0.3c-0.4,0.8-1,1.6-1.9,2.6c-0.9,0.9-2.1,1.7-3.6,2.3C1370.6,765.7,1368.8,766,1366.7,766z
			 M1367.5,761c2.2,0,4.1-0.4,5.6-1.3s2.7-2,3.5-3.4c0.8-1.4,1.2-2.8,1.2-4.4v-5.1c-0.2,0.3-0.8,0.5-1.6,0.8s-1.7,0.4-2.8,0.6
			c-1,0.2-2,0.3-3,0.4s-1.8,0.2-2.4,0.3c-1.5,0.2-2.8,0.5-4.1,0.9c-1.3,0.4-2.3,1-3.1,1.9c-0.8,0.8-1.2,2-1.2,3.4
			c0,2,0.7,3.4,2.2,4.4S1365.3,761,1367.5,761z"/>
		<path class="st11" d="M1418.3,736.8l-5.1,1.4c-0.5-1.3-1.3-2.5-2.5-3.6c-1.2-1.1-3-1.7-5.4-1.7c-2.2,0-4.1,0.5-5.6,1.5
			c-1.5,1-2.2,2.3-2.2,3.9c0,1.4,0.5,2.5,1.5,3.3s2.6,1.5,4.8,2l5.4,1.3c6.5,1.6,9.7,4.9,9.7,9.9c0,2.1-0.6,4-1.8,5.6
			c-1.2,1.7-2.9,3-5,3.9c-2.1,1-4.6,1.4-7.5,1.4c-3.7,0-6.8-0.8-9.3-2.4c-2.4-1.6-4-4-4.6-7.1l5.3-1.3c1,3.9,3.8,5.9,8.5,5.9
			c2.6,0,4.7-0.6,6.3-1.7c1.5-1.1,2.3-2.5,2.3-4c0-2.6-1.8-4.3-5.4-5.1l-6.1-1.4c-3.4-0.8-5.8-2-7.4-3.7c-1.6-1.7-2.3-3.8-2.3-6.3
			c0-2.1,0.6-3.9,1.8-5.5c1.2-1.6,2.8-2.8,4.8-3.7c2-0.9,4.3-1.4,6.9-1.4c3.6,0,6.5,0.8,8.5,2.4
			C1416,732.1,1417.4,734.2,1418.3,736.8z"/>
		<path class="st11" d="M1452,765.2l-11.2-36.6h5.9l7.9,28h0.4l7.8-28h6l7.7,27.9h0.4l7.9-27.9h5.9l-11.2,36.6h-5.5l-8-28.1h-0.6
			l-8,28.1H1452z"/>
		<path class="st11" d="M1499.7,722.5c-1.1,0-2-0.4-2.8-1.1c-0.8-0.7-1.2-1.6-1.2-2.7s0.4-1.9,1.2-2.7c0.8-0.7,1.7-1.1,2.8-1.1
			s2,0.4,2.8,1.1c0.8,0.7,1.2,1.6,1.2,2.7s-0.4,1.9-1.2,2.7C1501.8,722.1,1500.8,722.5,1499.7,722.5z M1496.9,765.2v-36.6h5.6v36.6
			H1496.9z"/>
		<path class="st11" d="M1527.4,728.6v4.8h-7.8v21.4c0,1.6,0.2,2.8,0.7,3.6c0.5,0.8,1.1,1.3,1.8,1.6c0.7,0.3,1.5,0.4,2.3,0.4
			c0.6,0,1.1,0,1.5-0.1c0.4-0.1,0.7-0.1,1-0.2l1.1,5.1c-0.4,0.1-0.9,0.3-1.6,0.4s-1.5,0.2-2.6,0.2c-1.6,0-3.1-0.3-4.7-1
			c-1.5-0.7-2.8-1.7-3.8-3.1c-1-1.4-1.5-3.2-1.5-5.3v-22.9h-5.5v-4.8h5.5v-8.8h5.6v8.8H1527.4z"/>
		<path class="st11" d="M1540.9,743.2v22h-5.6v-48.8h5.6v17.9h0.5c0.9-1.9,2.1-3.4,3.9-4.5c1.7-1.1,4-1.7,6.9-1.7
			c3.8,0,6.8,1.1,9.1,3.4c2.3,2.3,3.4,5.7,3.4,10.4v23.3h-5.6v-22.9c0-2.9-0.8-5.2-2.3-6.8c-1.5-1.6-3.6-2.4-6.2-2.4
			c-2.8,0-5.1,0.9-6.9,2.6C1541.8,737.5,1540.9,740,1540.9,743.2z"/>
		<path class="st11" d="M1589.2,721.6v-5.2h36.6v5.2h-15.3v43.6h-5.9v-43.6H1589.2z"/>
		<path class="st11" d="M1642.9,765.9c-3.5,0-6.6-0.8-9.1-2.3c-2.6-1.6-4.5-3.8-5.9-6.6c-1.4-2.8-2.1-6.1-2.1-9.9s0.7-7.1,2.1-9.9
			c1.4-2.9,3.3-5.1,5.8-6.7c2.5-1.6,5.4-2.4,8.7-2.4c1.9,0,3.8,0.3,5.6,1c1.9,0.6,3.6,1.7,5.1,3.1c1.5,1.4,2.7,3.3,3.6,5.6
			c0.9,2.3,1.4,5.2,1.4,8.6v2.4h-26.6c0.1,3.9,1.2,6.9,3.3,9c2.1,2.1,4.8,3.1,8.1,3.1c2.2,0,4.1-0.5,5.7-1.4c1.6-1,2.7-2.4,3.5-4.3
			l5.4,1.5c-0.9,2.8-2.6,5-5.1,6.7C1649.7,765.1,1646.6,765.9,1642.9,765.9z M1631.5,743.9h20.9c0-3.1-0.9-5.7-2.7-7.7
			s-4.2-3.1-7.3-3.1c-2.1,0-4,0.5-5.6,1.5s-2.8,2.3-3.7,4C1632.1,740.3,1631.6,742,1631.5,743.9z"/>
		<path class="st11" d="M1680.2,765.9c-3.4,0-6.4-0.8-8.9-2.4c-2.5-1.6-4.4-3.9-5.7-6.7c-1.3-2.8-2-6.1-2-9.7c0-3.7,0.7-7,2.1-9.9
			c1.4-2.9,3.3-5.1,5.8-6.7c2.5-1.6,5.4-2.4,8.7-2.4c2.6,0,4.9,0.5,7,1.4c2.1,1,3.8,2.3,5.1,4s2.1,3.7,2.5,6h-5.6
			c-0.4-1.7-1.4-3.2-2.8-4.4s-3.4-1.9-5.9-1.9c-3.3,0-5.9,1.3-7.9,3.8c-2,2.5-3,5.8-3,10c0,4.2,1,7.6,3,10.2c2,2.6,4.6,3.8,8,3.8
			c2.2,0,4.1-0.6,5.6-1.7c1.6-1.1,2.6-2.7,3.1-4.7h5.6c-0.3,2.2-1.1,4.1-2.3,5.8c-1.2,1.7-2.9,3.1-4.9,4.1
			C1685.2,765.4,1682.9,765.9,1680.2,765.9z"/>
		<path class="st11" d="M1707,743.2v22h-5.6v-48.8h5.6v17.9h0.5c0.9-1.9,2.1-3.4,3.9-4.5c1.7-1.1,4-1.7,6.9-1.7
			c3.8,0,6.8,1.1,9.1,3.4c2.3,2.3,3.4,5.7,3.4,10.4v23.3h-5.6v-22.9c0-2.9-0.8-5.2-2.3-6.8c-1.5-1.6-3.6-2.4-6.2-2.4
			c-2.8,0-5.1,0.9-6.9,2.6C1707.9,737.5,1707,740,1707,743.2z"/>
		<path class="st11" d="M1745.3,743.2v22h-5.6v-36.6h5.4v5.7h0.5c0.9-1.9,2.2-3.4,3.9-4.5c1.7-1.1,4-1.7,6.8-1.7
			c3.7,0,6.7,1.1,9,3.4c2.3,2.3,3.4,5.7,3.4,10.4v23.3h-5.6v-22.9c0-2.9-0.7-5.1-2.2-6.7c-1.5-1.6-3.5-2.4-6.1-2.4
			c-2.7,0-4.9,0.9-6.7,2.6C1746.2,737.5,1745.3,740,1745.3,743.2z"/>
		<path class="st11" d="M1792.5,765.9c-3.3,0-6.2-0.8-8.7-2.4c-2.5-1.6-4.4-3.8-5.8-6.6s-2.1-6.1-2.1-9.9c0-3.8,0.7-7.1,2.1-10
			s3.3-5.1,5.8-6.6c2.5-1.6,5.4-2.4,8.7-2.4s6.2,0.8,8.7,2.4c2.5,1.6,4.4,3.8,5.8,6.6s2.1,6.2,2.1,10c0,3.8-0.7,7.1-2.1,9.9
			s-3.3,5-5.8,6.6C1798.7,765.2,1795.8,765.9,1792.5,765.9z M1792.5,760.9c2.5,0,4.6-0.6,6.2-1.9s2.8-3,3.6-5.1
			c0.8-2.1,1.2-4.4,1.2-6.8c0-2.4-0.4-4.7-1.2-6.8c-0.8-2.1-2-3.8-3.6-5.1s-3.7-2-6.2-2s-4.6,0.7-6.2,2c-1.6,1.3-2.8,3-3.6,5.1
			c-0.8,2.1-1.2,4.4-1.2,6.8c0,2.4,0.4,4.7,1.2,6.8c0.8,2.1,2,3.8,3.6,5.1C1788,760.2,1790,760.9,1792.5,760.9z"/>
		<path class="st11" d="M1822,716.4v48.8h-5.6v-48.8H1822z"/>
		<path class="st11" d="M1845.8,765.9c-3.3,0-6.2-0.8-8.7-2.4c-2.5-1.6-4.4-3.8-5.8-6.6s-2.1-6.1-2.1-9.9c0-3.8,0.7-7.1,2.1-10
			s3.3-5.1,5.8-6.6c2.5-1.6,5.4-2.4,8.7-2.4s6.2,0.8,8.7,2.4c2.5,1.6,4.4,3.8,5.8,6.6s2.1,6.2,2.1,10c0,3.8-0.7,7.1-2.1,9.9
			s-3.3,5-5.8,6.6C1852,765.2,1849.1,765.9,1845.8,765.9z M1845.8,760.9c2.5,0,4.6-0.6,6.2-1.9s2.8-3,3.6-5.1
			c0.8-2.1,1.2-4.4,1.2-6.8c0-2.4-0.4-4.7-1.2-6.8c-0.8-2.1-2-3.8-3.6-5.1s-3.7-2-6.2-2s-4.6,0.7-6.2,2c-1.6,1.3-2.8,3-3.6,5.1
			c-0.8,2.1-1.2,4.4-1.2,6.8c0,2.4,0.4,4.7,1.2,6.8c0.8,2.1,2,3.8,3.6,5.1C1841.2,760.2,1843.3,760.9,1845.8,760.9z"/>
		<path class="st11" d="M1884.4,779.7c-4.1,0-7.3-0.7-9.7-2.2c-2.4-1.5-4.1-3.2-5.3-5.1l4.5-3.1c0.5,0.7,1.2,1.4,1.9,2.3
			c0.8,0.9,1.8,1.6,3.2,2.3s3.1,1,5.4,1c3,0,5.4-0.7,7.3-2.1c1.9-1.4,2.9-3.7,2.9-6.7v-7.4h-0.5c-0.4,0.7-1,1.5-1.8,2.5
			c-0.8,1-1.8,1.8-3.2,2.6s-3.3,1.1-5.7,1.1c-3,0-5.6-0.7-7.9-2.1c-2.3-1.4-4.2-3.4-5.6-6.1c-1.4-2.7-2-5.9-2-9.7c0-3.8,0.7-7,2-9.8
			c1.3-2.8,3.2-4.9,5.5-6.5c2.4-1.5,5.1-2.3,8.2-2.3c2.4,0,4.3,0.4,5.7,1.2c1.4,0.8,2.5,1.7,3.2,2.7s1.3,1.8,1.8,2.4h0.6v-5.8h5.4
			v37.7c0,3.1-0.7,5.7-2.1,7.7c-1.4,2-3.3,3.4-5.7,4.4S1887.3,779.7,1884.4,779.7z M1884.2,759.6c3.4,0,6-1.1,7.8-3.4
			s2.7-5.5,2.7-9.5c0-4-0.9-7.2-2.7-9.7c-1.8-2.5-4.4-3.8-7.8-3.8c-2.4,0-4.4,0.6-5.9,1.8c-1.6,1.2-2.8,2.8-3.6,4.9
			s-1.2,4.3-1.2,6.8c0,3.8,0.9,6.9,2.7,9.3C1878,758.3,1880.7,759.6,1884.2,759.6z"/>
		<path class="st11" d="M1912.6,779.4c-1,0-1.8-0.1-2.6-0.2c-0.7-0.2-1.3-0.3-1.5-0.4l1.4-5c2,0.5,3.8,0.5,5.1,0
			c1.4-0.5,2.6-2.2,3.5-4.9l1.2-3.4l-13.5-36.8h6.1l10.1,29.2h0.4l10.1-29.2h6.1l-15.7,42.5C1921.3,776.6,1917.8,779.4,1912.6,779.4
			z"/>
	</g>
	<g>
		<path class="st0" d="M917.8,570.3c-0.5-4.7-2.6-8.4-6.3-11c-3.7-2.6-8.6-3.9-14.5-3.9c-6.3,0-11.2,1.4-14.7,4.1s-5.3,6.2-5.3,10.3
			c0,3.1,0.9,5.6,2.8,7.6c1.9,2,4.3,3.6,7.2,4.8c2.9,1.2,5.9,2.1,8.9,2.9l10.4,2.6c5.5,1.3,10.8,3.2,15.7,5.8s9,5.9,12.1,10.2
			c3.1,4.2,4.7,9.6,4.7,16c0,9.8-3.7,17.7-11.1,23.7c-7.3,6-17.6,9-30.9,9c-12.9,0-23.2-3-30.8-8.9c-7.7-6-11.7-14.4-12.1-25.4h19.7
			c0.4,5.8,2.8,10.1,7.1,13c4.4,2.8,9.7,4.3,15.9,4.3c6.6,0,11.9-1.4,15.9-4.3c4.1-2.9,6.1-6.7,6.2-11.4c0-4.3-1.9-7.5-5.5-9.7
			s-8.4-4.1-14.4-5.6l-12.6-3.2c-9.1-2.3-16.3-5.9-21.6-10.7c-5.3-4.8-7.9-11.1-7.9-19c0-6.5,1.8-12.2,5.3-17.1
			c3.5-4.9,8.4-8.7,14.5-11.4c6.1-2.7,13.1-4.1,20.8-4.1c7.8,0,14.7,1.4,20.7,4.1c5.9,2.7,10.6,6.5,14,11.3s5.1,10.3,5.2,16.6H917.8
			z"/>
		<path class="st0" d="M1043.4,652.1c-8.1,0-15.1-1.8-21.1-5.3s-10.5-8.6-13.8-15c-3.3-6.4-4.9-13.9-4.9-22.4
			c0-8.6,1.6-16.1,4.9-22.5c3.3-6.4,7.9-11.4,13.8-15s13-5.4,21.1-5.4s15.1,1.8,21.1,5.4s10.6,8.6,13.8,15s4.9,13.9,4.9,22.5
			c0,8.5-1.6,16-4.9,22.4c-3.2,6.4-7.8,11.4-13.8,15S1051.5,652.1,1043.4,652.1z M1043.5,636.4c4.4,0,8.1-1.2,11-3.6
			s5.1-5.7,6.6-9.8c1.5-4.1,2.2-8.7,2.2-13.7c0-5.1-0.7-9.7-2.2-13.8c-1.5-4.1-3.7-7.4-6.6-9.9s-6.6-3.7-11-3.7
			c-4.5,0-8.2,1.2-11.2,3.7c-3,2.4-5.2,5.7-6.7,9.9c-1.5,4.1-2.2,8.7-2.2,13.8c0,5,0.7,9.6,2.2,13.7c1.5,4.1,3.7,7.4,6.7,9.8
			C1035.3,635.2,1039.1,636.4,1043.5,636.4z"/>
		<path class="st0" d="M1170.9,539.9v110.6h-19.5V539.9H1170.9z"/>
		<path class="st0" d="M1295.6,615.6v-48.1h19.5v83h-19v-14.7h-0.9c-1.9,4.6-4.9,8.4-9.2,11.4c-4.3,3-9.5,4.4-15.7,4.4
			c-8.1,0-14.8-2.7-19.9-8.1c-5.1-5.4-7.7-13.1-7.7-23.1v-52.8h19.5v49.8c0,5.3,1.4,9.4,4.3,12.5c2.9,3.1,6.7,4.6,11.3,4.6
			c2.9,0,5.7-0.7,8.4-2.1c2.7-1.4,4.9-3.5,6.7-6.3S1295.6,619.8,1295.6,615.6z"/>
		<path class="st0" d="M1428.4,567.5v15.1H1412v42.9c0,3.9,0.9,6.5,2.6,7.8c1.7,1.2,3.8,1.9,6.3,1.9c1.2,0,2.3-0.1,3.4-0.3
			c1-0.2,1.8-0.3,2.3-0.5l3.3,15.3c-1,0.4-2.5,0.8-4.5,1.2c-1.9,0.4-4.3,0.7-7,0.8c-7.3,0.2-13.5-1.6-18.5-5.4
			c-5-3.8-7.5-9.6-7.4-17.4v-46.1h-11.8v-15.1h11.8v-19.9h19.5v19.9H1428.4z"/>
		<path class="st0" d="M1506.3,555.7c-3.1,0-5.8-1-8-3.1c-2.2-2.1-3.3-4.6-3.3-7.5c0-3,1.1-5.5,3.3-7.5c2.2-2.1,4.9-3.1,8-3.1
			c3.1,0,5.8,1,8,3.1c2.2,2.1,3.3,4.6,3.3,7.5c0,2.9-1.1,5.4-3.3,7.5S1509.4,555.7,1506.3,555.7z M1496.4,650.5v-83h19.5v83H1496.4z
			"/>
		<path class="st0" d="M1624,652.1c-8.1,0-15.1-1.8-21.1-5.3s-10.5-8.6-13.8-15c-3.3-6.4-4.9-13.9-4.9-22.4c0-8.6,1.6-16.1,4.9-22.5
			c3.3-6.4,7.9-11.4,13.8-15s13-5.4,21.1-5.4s15.1,1.8,21.1,5.4s10.6,8.6,13.8,15s4.9,13.9,4.9,22.5c0,8.5-1.6,16-4.9,22.4
			c-3.2,6.4-7.8,11.4-13.8,15S1632.1,652.1,1624,652.1z M1624.1,636.4c4.4,0,8.1-1.2,11-3.6s5.1-5.7,6.6-9.8
			c1.5-4.1,2.2-8.7,2.2-13.7c0-5.1-0.7-9.7-2.2-13.8c-1.5-4.1-3.7-7.4-6.6-9.9s-6.6-3.7-11-3.7c-4.5,0-8.2,1.2-11.2,3.7
			c-3,2.4-5.2,5.7-6.7,9.9c-1.5,4.1-2.2,8.7-2.2,13.8c0,5,0.7,9.6,2.2,13.7c1.5,4.1,3.7,7.4,6.7,9.8
			C1615.9,635.2,1619.6,636.4,1624.1,636.4z"/>
		<path class="st0" d="M1751.5,601.9v48.6h-19.5v-83h18.7v14.1h1c1.9-4.6,5-8.3,9.2-11c4.2-2.8,9.4-4.1,15.6-4.1
			c8.6,0,15.5,2.7,20.7,8.2c5.2,5.4,7.8,13.1,7.7,23.1v52.8h-19.5v-49.8c0-5.5-1.4-9.9-4.3-13s-6.8-4.7-11.9-4.7
			c-5.1,0-9.4,1.6-12.6,4.9C1753.1,591.2,1751.5,595.8,1751.5,601.9z"/>
		<path class="st0" d="M1941.9,589.4l-17.8,1.9c-0.8-2.7-2.4-5.1-4.8-7.2c-2.5-2.1-6-3.1-10.5-3.1c-4.1,0-7.5,0.9-10.2,2.6
			c-2.8,1.8-4.1,4-4.1,6.9c0,2.4,0.9,4.4,2.7,5.9c1.8,1.5,4.8,2.8,9,3.7l14.1,3c15.5,3.4,23.3,10.9,23.3,22.5
			c0,5.2-1.5,9.8-4.5,13.8c-3,4-7.2,7.1-12.5,9.3c-5.3,2.2-11.4,3.3-18.4,3.3c-10.2,0-18.4-2.1-24.5-6.4
			c-6.2-4.3-9.8-10.2-11.1-17.8l19.1-1.8c1.7,7.6,7.2,11.3,16.5,11.3c4.6,0,8.4-0.9,11.2-2.8c2.8-1.9,4.2-4.3,4.2-7.1
			c0-4.6-3.7-7.8-11.2-9.5l-14.1-3c-8-1.7-13.8-4.5-17.7-8.4c-3.8-3.9-5.7-8.9-5.7-15c0-5.1,1.4-9.5,4.2-13.3
			c2.8-3.8,6.7-6.7,11.8-8.7c5-2.1,10.9-3.1,17.6-3.1c9.7,0,17.4,2.1,23,6.2C1937.1,576.8,1940.6,582.4,1941.9,589.4z"/>
	</g>
	<g>
		<g>
			<linearGradient id="SVGID_8_" gradientUnits="userSpaceOnUse" x1="226.001" y1="424.7161" x2="647.4592" y2="424.7161">
				<stop  offset="0" style="stop-color:#35383D"/>
				<stop  offset="1" style="stop-color:#B7F272"/>
			</linearGradient>
			<path class="st9" d="M374.1,615.7c-37.9,0-75.9-14.4-104.8-43.3c-28-28-43.4-65.2-43.4-104.8s15.4-76.8,43.4-104.8l101.3-101.3
				c37.1-37.1,97.5-37.1,134.6,0h0l142.2,142.2L478.9,572.4C450,601.2,412.1,615.7,374.1,615.7z M437.9,256.9
				c-18.4,0-36.9,7-50.9,21.1L285.8,379.2c-23.6,23.6-36.6,55-36.6,88.4s13,64.8,36.6,88.4c23.6,23.6,55,36.6,88.4,36.6
				s64.8-13,88.4-36.6l152.2-152.2L488.9,278C474.8,263.9,456.4,256.9,437.9,256.9z"/>
		</g>
		<g>
			<linearGradient id="SVGID_9_" gradientUnits="userSpaceOnUse" x1="258.0869" y1="655.2613" x2="679.4752" y2="655.2613">
				<stop  offset="0" style="stop-color:#B7F272"/>
				<stop  offset="1" style="stop-color:#35383D"/>
			</linearGradient>
			<path class="st10" d="M467.6,846.2c-25.4,0-49.3-9.9-67.3-27.9L258.1,676.2l168.6-168.6c57.8-57.8,151.7-57.8,209.5,0
				c57.8,57.8,57.8,151.8,0,209.5L534.9,818.4C516.9,836.3,493,846.2,467.6,846.2z M290.8,676.2L416.7,802
				c13.6,13.6,31.7,21.1,50.9,21.1s37.3-7.5,50.9-21.1l101.3-101.3c48.7-48.7,48.7-128,0-176.8c-48.7-48.7-128-48.7-176.8,0
				L290.8,676.2z"/>
		</g>
	</g>
</g>
</svg>
